<svg width="28" height="18" viewBox="0 0 28 18" fill="none" xmlns="http://www.w3.org/2000/svg">
<path d="M17.5743 4.36316C18.51 4.16152 19.4851 4.25443 20.3658 4.62914C21.2466 5.00385 21.9897 5.642 22.4933 6.45596C22.8693 7.06413 23.0988 7.75138 23.1637 8.46345C23.2286 9.17553 23.1271 9.89294 22.8671 10.5591C22.6072 11.2252 22.196 11.8217 21.666 12.3017C21.136 12.7817 20.5017 13.1319 19.8132 13.3246C18.8921 13.5849 17.9131 13.5537 17.0104 13.2353C16.1078 12.9169 15.3259 12.3269 14.772 11.5464C14.2196 10.7662 13.9228 9.83404 13.9223 8.87818H9.82617C9.82459 10.7828 10.4477 12.6354 11.6 14.1519C12.4627 15.2845 13.5887 16.1895 14.8802 16.7886C16.1717 17.3877 17.5899 17.6628 19.0118 17.5899C20.4336 17.5171 21.8163 17.0986 23.0398 16.3706C24.2634 15.6427 25.291 14.6274 26.0335 13.4126C27.0236 11.7859 27.453 9.8795 27.256 7.98543C27.0589 6.09137 26.2461 4.31417 24.9423 2.92622C23.6376 1.53488 21.9135 0.608433 20.0332 0.288178C18.1528 -0.0320778 16.2193 0.271428 14.5275 1.15241C15.8002 1.94541 16.8491 3.05066 17.5743 4.36316Z" fill="#5F5FFF"/>
<path d="M10.199 13.4099C9.26338 13.6116 8.28825 13.5187 7.40751 13.144C6.52678 12.7693 5.78361 12.1311 5.28006 11.3171C4.90372 10.709 4.67391 10.0218 4.60878 9.30958C4.54364 8.59741 4.64497 7.87985 4.90475 7.21356C5.16453 6.54727 5.57565 5.95049 6.10565 5.47035C6.63566 4.99022 7.27002 4.63987 7.95866 4.44698C8.87979 4.18622 9.85905 4.21702 10.762 4.53516C11.6649 4.85331 12.4472 5.44318 13.0014 6.22378C13.5529 7.00485 13.851 7.93796 13.851 8.89195H17.9457C17.9469 6.98783 17.3238 5.13582 16.1719 3.6197C15.309 2.48722 14.183 1.58227 12.8914 0.983304C11.5998 0.384337 10.1816 0.109428 8.75969 0.182408C7.33783 0.255388 5.95522 0.674055 4.73172 1.40211C3.50822 2.13017 2.48076 3.14565 1.7384 4.36053C0.748447 5.98732 0.319259 7.89386 0.516608 9.78793C0.713958 11.682 1.52696 13.4591 2.83101 14.8469C4.13568 16.2379 5.85943 17.1641 7.73947 17.4844C9.61951 17.8046 11.5527 17.5013 13.2443 16.6207C11.9722 15.8275 10.9239 14.7223 10.199 13.4099Z" fill="#17E5AA"/>
</svg>
