<svg width="36" height="37" viewBox="0 0 36 37" fill="none" xmlns="http://www.w3.org/2000/svg">
<path d="M24.3864 21.2378C24.5057 20.254 24.5951 19.2702 24.5951 18.2566C24.5951 17.243 24.5057 16.2592 24.3864 15.2754H29.4247C29.6632 16.2294 29.8122 17.2281 29.8122 18.2566C29.8122 19.2851 29.6632 20.2838 29.4247 21.2378M21.7481 29.5255C22.6424 27.8709 23.3281 26.0822 23.8051 24.219H28.2024C26.7582 26.7057 24.4671 28.5894 21.7481 29.5255ZM21.3754 21.2378H14.3994C14.2504 20.254 14.1609 19.2702 14.1609 18.2566C14.1609 17.243 14.2504 16.2443 14.3994 15.2754H21.3754C21.5096 16.2443 21.6139 17.243 21.6139 18.2566C21.6139 19.2702 21.5096 20.254 21.3754 21.2378ZM17.8874 30.1217C16.6502 28.333 15.6515 26.3505 15.0404 24.219H20.7345C20.1233 26.3505 19.1246 28.333 17.8874 30.1217ZM11.925 12.2942H7.57249C9.00144 9.80046 11.291 7.91367 14.0119 6.98765C13.1175 8.64221 12.4467 10.4309 11.925 12.2942ZM7.57249 24.219H11.925C12.4467 26.0822 13.1175 27.8709 14.0119 29.5255C11.2964 28.5898 9.00986 26.7056 7.57249 24.219ZM6.3502 21.2378C6.1117 20.2838 5.96264 19.2851 5.96264 18.2566C5.96264 17.2281 6.1117 16.2294 6.3502 15.2754H11.3884C11.2692 16.2592 11.1797 17.243 11.1797 18.2566C11.1797 19.2702 11.2692 20.254 11.3884 21.2378M17.8874 6.3765C19.1246 8.16522 20.1233 10.1626 20.7345 12.2942H15.0404C15.6515 10.1626 16.6502 8.16522 17.8874 6.3765ZM28.2024 12.2942H23.8051C23.3379 10.4482 22.6471 8.66622 21.7481 6.98765C24.4908 7.92672 26.7714 9.81978 28.2024 12.2942ZM17.8874 3.35059C9.64442 3.35059 2.98145 10.0583 2.98145 18.2566C2.98145 22.2099 4.55189 26.0013 7.34731 28.7967C8.73146 30.1808 10.3747 31.2788 12.1832 32.0279C13.9916 32.777 15.9299 33.1626 17.8874 33.1626C21.8407 33.1626 25.6321 31.5921 28.4276 28.7967C31.223 26.0013 32.7934 22.2099 32.7934 18.2566C32.7934 16.2991 32.4079 14.3608 31.6588 12.5523C30.9097 10.7438 29.8117 9.1006 28.4276 7.71645C27.0434 6.3323 25.4002 5.23433 23.5917 4.48524C21.7832 3.73614 19.8449 3.35059 17.8874 3.35059Z" fill="url(#paint0_linear_1067_5325)"/>
<defs>
<linearGradient id="paint0_linear_1067_5325" x1="17.8874" y1="3.35059" x2="17.8874" y2="33.1626" gradientUnits="userSpaceOnUse">
<stop stop-color="#EE55BB"/>
<stop offset="1" stop-color="#C9C54A"/>
</linearGradient>
</defs>
</svg>
