<svg width="36" height="36" viewBox="0 0 36 36" fill="none" xmlns="http://www.w3.org/2000/svg">
<path d="M30.1205 4.23659C26.0679 1.02808 20.0785 2.49259 17.0628 5.13095C13.6866 8.08233 13.5916 12.747 15.3496 16.5564L3.16953 28.5101C2.67484 28.9964 2.16617 32.476 2.19133 33.1607L3.8403 34.3122C3.8403 34.3122 6.63238 35.1479 7.84815 34.1976C9.06392 33.2474 10.1316 31.5257 10.0058 30.7515C9.93312 30.3072 10.0281 29.8935 10.316 29.6112C10.6738 29.2591 11.2439 29.2004 11.8225 29.3932C12.2668 29.5414 12.7615 29.4156 13.0941 29.0886L13.2115 28.974C13.6838 28.5324 13.7369 28.0182 13.6447 27.5877C13.5022 26.9198 13.7453 26.3664 14.1198 25.8773C14.444 25.4525 15.0589 25.2736 15.5955 25.2652C16.5626 25.2512 17.1886 25.0444 17.8734 24.3736L19.6565 22.6296C23.6699 24.4184 28.5917 23.6106 31.7862 20.2037C35.8835 15.8325 34.8354 7.97054 30.1205 4.23659ZM27.7057 13.5575C26.5878 14.6531 24.7767 14.6531 23.6587 13.5575C22.5408 12.4619 22.5408 10.6816 23.6587 9.58597C24.7767 8.49038 26.5878 8.49038 27.7057 9.58597C28.8237 10.6816 28.8237 12.4619 27.7057 13.5575Z" fill="#9E740B"/>
<path d="M30.1211 4.23724C25.9623 0.0784718 19.2211 0.0784718 15.0623 4.23724C11.879 7.4206 11.1356 12.1132 12.8237 16.0064L2.18916 26.5739C1.94164 26.8206 1.74763 27.1157 1.61923 27.4408C1.49084 27.7659 1.43083 28.1139 1.44293 28.4632L1.56591 31.7472C2.17239 32.0881 2.19196 33.1642 2.19196 33.1642L4.95888 33.3766C5.66599 33.3989 6.35073 33.1278 6.84822 32.6303L7.72581 31.7528C8.2736 31.205 8.58383 30.4308 8.44688 29.6706C8.36024 29.1982 8.45527 28.7566 8.75432 28.4576C9.10647 28.1054 9.65706 28.0384 10.2244 28.2144C10.6968 28.3626 11.211 28.2675 11.5632 27.9182L11.6833 27.798C12.1613 27.3424 12.2144 26.8142 12.1221 26.3726C11.9796 25.6851 12.2256 25.1177 12.6001 24.6146C12.9271 24.1759 13.5503 23.9942 14.0897 23.9858C15.0651 23.9718 15.6996 23.7594 16.3899 23.0691L18.0612 21.4061C22.0104 23.2647 26.8623 22.5632 30.1267 19.2988C34.2799 15.1372 34.2799 8.39601 30.1211 4.23724ZM26.3201 12.1244C25.191 13.2535 23.3603 13.2535 22.234 12.1244C21.1049 10.9952 21.1049 9.1646 22.234 8.03827C23.3631 6.90914 25.1938 6.90914 26.3201 8.03827C27.4492 9.1646 27.4492 10.9952 26.3201 12.1244Z" fill="#FFC102"/>
<path d="M1.56543 31.7467C1.56543 31.7467 1.91199 31.9815 2.19148 33.1637L15.4615 19.6728C15.8947 19.1977 13.9523 19.4437 13.371 20.0222L1.56543 31.7467Z" fill="#DBA010"/>
<path d="M16.8902 5.56764C15.8002 6.16015 14.5704 7.74763 14.2322 10.0394C13.9248 12.1188 14.0562 13.5638 14.7549 14.7795C15.5458 16.1518 16.6218 15.4251 16.1886 14.0892C15.9036 13.2088 15.8309 12.8762 15.7918 11.9427C15.761 11.2133 15.8365 10.4782 16.0433 9.77951C16.5576 8.04669 17.751 6.90917 18.1003 6.3474C18.5447 5.62912 17.8432 5.04499 16.8902 5.56764ZM9.23779 22.281C8.44405 22.9573 9.26574 20.8528 9.87503 20.1429C10.6772 19.2038 12.5777 17.2111 12.9131 17.0406C13.3714 16.8086 13.3435 18.0887 13.1562 18.3234C12.491 19.1451 10.0343 21.6046 9.23779 22.281Z" fill="#FFF59D"/>
</svg>
