<svg width="36" height="36" viewBox="0 0 36 36" fill="none" xmlns="http://www.w3.org/2000/svg">
<path fill-rule="evenodd" clip-rule="evenodd" d="M17.9402 35.3902C27.5779 35.3902 35.3902 27.5779 35.3902 17.9402C35.3902 8.3026 27.5779 0.490234 17.9402 0.490234C8.3026 0.490234 0.490234 8.3026 0.490234 17.9402C0.490234 27.5779 8.3026 35.3902 17.9402 35.3902ZM18.7604 11.7804C19.0058 11.5353 19.3384 11.3976 19.6852 11.3976C20.0321 11.3976 20.3647 11.5353 20.6101 11.7804L25.8451 17.0154C26.0902 17.2608 26.2278 17.5934 26.2278 17.9402C26.2278 18.2871 26.0902 18.6197 25.8451 18.8651L20.6101 24.1001C20.4903 24.2287 20.3458 24.3318 20.1852 24.4033C20.0247 24.4749 19.8514 24.5133 19.6757 24.5164C19.5 24.5195 19.3254 24.4872 19.1624 24.4214C18.9995 24.3556 18.8514 24.2576 18.7272 24.1333C18.6029 24.009 18.5049 23.861 18.4391 23.698C18.3733 23.5351 18.3409 23.3605 18.344 23.1848C18.3471 23.0091 18.3856 22.8358 18.4571 22.6752C18.5287 22.5147 18.6318 22.3702 18.7604 22.2504L21.7618 19.249H10.9602C10.6131 19.249 10.2802 19.1111 10.0348 18.8657C9.78937 18.6202 9.65149 18.2873 9.65149 17.9402C9.65149 17.5931 9.78937 17.2602 10.0348 17.0148C10.2802 16.7694 10.6131 16.6315 10.9602 16.6315H21.7618L18.7604 13.6301C18.5153 13.3847 18.3776 13.0521 18.3776 12.7052C18.3776 12.3584 18.5153 12.0258 18.7604 11.7804Z" fill="url(#paint0_linear_799_4120)"/>
<defs>
<linearGradient id="paint0_linear_799_4120" x1="17.9402" y1="0.490234" x2="17.9402" y2="35.3902" gradientUnits="userSpaceOnUse">
<stop stop-color="#F5BD33"/>
<stop offset="1" stop-color="#C2A500"/>
</linearGradient>
</defs>
</svg>
